<?xml version="1.0" encoding="UTF-8"?>
<svg xmlns="http://www.w3.org/2000/svg" version="1.1" width="300" height="300" viewBox="0 0 300 300"><rect x="0" y="0" width="300" height="300" fill="#ffffff"/><g transform="scale(10.345)"><g transform="translate(0,0)"><path fill-rule="evenodd" d="M9 0L9 1L8 1L8 2L9 2L9 3L8 3L8 4L9 4L9 5L8 5L8 7L9 7L9 8L6 8L6 9L8 9L8 11L7 11L7 10L6 10L6 11L7 11L7 12L5 12L5 11L3 11L3 10L5 10L5 8L0 8L0 11L1 11L1 12L2 12L2 11L3 11L3 12L4 12L4 13L5 13L5 15L4 15L4 16L3 16L3 13L2 13L2 15L1 15L1 14L0 14L0 15L1 15L1 16L0 16L0 21L1 21L1 18L2 18L2 19L4 19L4 20L5 20L5 21L8 21L8 23L9 23L9 21L8 21L8 20L5 20L5 19L9 19L9 20L10 20L10 24L11 24L11 26L10 26L10 29L11 29L11 26L13 26L13 27L12 27L12 28L13 28L13 29L14 29L14 28L15 28L15 29L16 29L16 27L18 27L18 26L19 26L19 25L18 25L18 24L17 24L17 23L18 23L18 22L19 22L19 23L20 23L20 27L19 27L19 28L22 28L22 27L23 27L23 26L24 26L24 27L26 27L26 26L24 26L24 25L27 25L27 24L25 24L25 23L27 23L27 22L29 22L29 20L28 20L28 19L27 19L27 16L28 16L28 15L27 15L27 12L28 12L28 11L27 11L27 12L25 12L25 9L26 9L26 8L25 8L25 9L24 9L24 8L23 8L23 9L22 9L22 8L20 8L20 9L18 9L18 8L17 8L17 5L15 5L15 4L18 4L18 5L20 5L20 3L21 3L21 0L19 0L19 1L18 1L18 3L16 3L16 1L15 1L15 0L14 0L14 1L13 1L13 0ZM10 1L10 3L9 3L9 4L13 4L13 3L14 3L14 4L15 4L15 3L14 3L14 2L13 2L13 3L12 3L12 1ZM19 1L19 2L20 2L20 1ZM18 3L18 4L19 4L19 3ZM10 5L10 6L9 6L9 7L10 7L10 8L9 8L9 9L13 9L13 8L14 8L14 9L15 9L15 10L10 10L10 11L13 11L13 12L10 12L10 14L9 14L9 15L8 15L8 16L7 16L7 15L5 15L5 17L6 17L6 18L7 18L7 17L8 17L8 16L9 16L9 18L10 18L10 20L12 20L12 21L13 21L13 22L14 22L14 23L13 23L13 24L12 24L12 22L11 22L11 24L12 24L12 25L13 25L13 26L14 26L14 25L15 25L15 26L16 26L16 25L17 25L17 26L18 26L18 25L17 25L17 24L16 24L16 23L17 23L17 22L18 22L18 21L19 21L19 20L21 20L21 19L22 19L22 18L21 18L21 17L20 17L20 16L21 16L21 14L22 14L22 17L23 17L23 18L24 18L24 19L25 19L25 21L26 21L26 20L27 20L27 19L25 19L25 18L24 18L24 17L26 17L26 16L27 16L27 15L26 15L26 13L25 13L25 12L24 12L24 9L23 9L23 12L22 12L22 13L20 13L20 12L21 12L21 11L22 11L22 10L21 10L21 9L20 9L20 10L17 10L17 9L15 9L15 7L16 7L16 6L15 6L15 5L13 5L13 7L12 7L12 5ZM10 6L10 7L11 7L11 6ZM14 6L14 7L15 7L15 6ZM18 6L18 7L19 7L19 6ZM20 6L20 7L21 7L21 6ZM27 8L27 9L28 9L28 10L29 10L29 9L28 9L28 8ZM2 9L2 10L1 10L1 11L2 11L2 10L3 10L3 9ZM15 10L15 11L14 11L14 12L13 12L13 13L11 13L11 14L12 14L12 16L13 16L13 17L11 17L11 16L10 16L10 15L9 15L9 16L10 16L10 18L13 18L13 19L12 19L12 20L13 20L13 21L14 21L14 22L15 22L15 23L14 23L14 24L13 24L13 25L14 25L14 24L15 24L15 23L16 23L16 22L15 22L15 21L14 21L14 20L13 20L13 19L14 19L14 18L15 18L15 19L16 19L16 20L17 20L17 21L18 21L18 20L19 20L19 19L18 19L18 18L20 18L20 17L18 17L18 16L15 16L15 17L14 17L14 16L13 16L13 13L14 13L14 14L15 14L15 15L16 15L16 14L15 14L15 13L18 13L18 15L19 15L19 14L20 14L20 13L18 13L18 12L19 12L19 11L18 11L18 12L15 12L15 11L17 11L17 10ZM8 11L8 12L7 12L7 13L6 13L6 14L7 14L7 13L8 13L8 12L9 12L9 11ZM14 12L14 13L15 13L15 12ZM23 12L23 13L22 13L22 14L23 14L23 13L24 13L24 14L25 14L25 13L24 13L24 12ZM28 13L28 14L29 14L29 13ZM23 15L23 16L24 16L24 15ZM2 16L2 18L4 18L4 19L5 19L5 18L4 18L4 17L3 17L3 16ZM6 16L6 17L7 17L7 16ZM13 17L13 18L14 18L14 17ZM15 17L15 18L17 18L17 17ZM28 17L28 18L29 18L29 17ZM17 19L17 20L18 20L18 19ZM2 20L2 21L3 21L3 20ZM21 21L21 24L24 24L24 21ZM22 22L22 23L23 23L23 22ZM8 24L8 29L9 29L9 24ZM22 25L22 26L21 26L21 27L22 27L22 26L23 26L23 25ZM28 25L28 26L27 26L27 28L24 28L24 29L27 29L27 28L28 28L28 26L29 26L29 25ZM13 27L13 28L14 28L14 27ZM17 28L17 29L18 29L18 28ZM0 0L0 7L7 7L7 0ZM1 1L1 6L6 6L6 1ZM2 2L2 5L5 5L5 2ZM22 0L22 7L29 7L29 0ZM23 1L23 6L28 6L28 1ZM24 2L24 5L27 5L27 2ZM0 22L0 29L7 29L7 22ZM1 23L1 28L6 28L6 23ZM2 24L2 27L5 27L5 24Z" fill="#000000"/></g></g></svg>
